<?xml version="1.0" encoding="utf-8"?>
<!-- Generator: Adobe Illustrator 21.1.0, SVG Export Plug-In . SVG Version: 6.00 Build 0)  -->
<svg version="1.1" id="Layer_1" xmlns="http://www.w3.org/2000/svg" xmlns:xlink="http://www.w3.org/1999/xlink" x="0px" y="0px"
	 viewBox="0 0 300 80" style="enable-background:new 0 0 300 80;" xml:space="preserve">
<style type="text/css">
	.st0{fill:#C0B283;stroke:#C0B283;stroke-miterlimit:10;}
	.st1{fill:#B1B1B1;stroke:#C0B283;stroke-miterlimit:10;}
</style>
<path class="st0" d="M168.9,8.6c0.8,3.6,0.3,6.8-1.6,9.8c-3.6,5.7-7.1,11.4-10.2,17.4c-0.5,0.9-0.9,1.9-1.3,2.8
	c-0.4,1-0.6,2.1-0.9,3.1c-0.2,0.7-0.8,1.1-1.5,0.9c-1.8-0.6-3,0-3.7,1.7c-1.3,3.2-2.9,6.1-4.9,8.9c-0.8,1.1-1.7,2.1-2.6,3.2
	c-0.5,0.6-0.8,1.3-1.3,1.8c-1.2,1.3-1.2,2.9-0.9,4.5c0.1,0.6,0.3,1.2,0.3,1.8c0,2.1-1.3,3.9-3.2,4.6c-1.8,0.6-4.1,0-5.3-1.4
	c-1.3-1.5-1.5-3.9-0.4-5.6c0.8-1.4,1.7-2.7,2.5-4c3.6-5.7,7.2-11.4,10.8-17.2c7.2-11.4,14.3-22.7,21.5-34.1c0.3-0.4,0.6-0.9,1.2-0.8
	c0.6,0.1,0.9,0.5,1,1C168.6,7.8,168.8,8.3,168.9,8.6z"/>
<title>Layer 1</title>
<path id="path3642" class="st0" d="M143.3,34.7c12.8,19.3,13.4,26.8,20.3,33.5c2.9,2.8,6.4-0.1,5.1-3.4c-3.2-8.3-10.5-13.1-23-32
	c-1.7-2.6,0.3-4-0.8-8.1c-1-3.6-13-18.7-13.5-18.4c-0.5,0.3,9,14.1,8,14.7c-1,0.6-9.6-13.4-10.3-13.2c-0.7,0.2,9,14,7.9,14.7
	c-1.1,0.8-9.6-13.6-10.2-13.2c-0.6,0.4,8.8,14.2,7.8,14.8c-1,0.7-9.7-13.6-10.2-13.3c-0.8,0.5,8.3,16.2,10.9,19.1
	S141.2,31.6,143.3,34.7z"/>
<line class="st1" x1="55" y1="37" x2="126" y2="37"/>
<line class="st1" x1="22.5" y1="42.5" x2="126" y2="42.5"/>
<line class="st1" x1="243.5" y1="37" x2="172.5" y2="37"/>
<line class="st1" x1="276" y1="42.5" x2="172.5" y2="42.5"/>
</svg>
