<?xml version="1.0" encoding="utf-8"?>
<!-- Generator: Adobe Illustrator 21.1.0, SVG Export Plug-In . SVG Version: 6.00 Build 0)  -->
<svg version="1.1" id="Layer_1" xmlns="http://www.w3.org/2000/svg" xmlns:xlink="http://www.w3.org/1999/xlink" x="0px" y="0px"
	 viewBox="0 0 60 60" style="enable-background:new 0 0 60 60;" xml:space="preserve">
<style type="text/css">
	.st0{fill:#FF0000;}
	.st1{fill:#39B54A;}
</style>
<g>
	<path class="st0" d="M60.1,30.6c0,1.5,0,3.1,0,4.6c-0.1,0.3-0.2,0.6-0.2,0.9c-0.8,6.3-3.5,11.6-8.1,15.6
		c-9.6,8.4-20.6,10.3-32.4,6.1c-8.5-3-14.6-8.9-17.4-18c-0.4-1.5-0.6-3.1-1-4.6c0-1.7,0-3.4,0-5.2c0.2-1.2,0.3-2.3,0.5-3.5
		c0.8-4.7,2.4-8.9,5.9-12.3c1.9-1.8,4-3.1,6.7-3.9c-0.5,0.6-0.9,1-1.3,1.5c3,0.8,5.8,1.7,7.7,4.2c-4,4.9-3.7,7.7-3.8,11.8
		c3-2.1,6.2-3,9.8-2.7c0.8,4,2.9,7.1,6.5,9c3.6-3,5.3-6.9,4.8-11.5c3.2-1.7,6.5-1.7,9.9-1.1c-1.4-4-3.3-7.4-7.2-9.3
		c1-0.8,1.8-1.4,2.6-2c1.3-1,2.7-1.1,4.3-0.5c6.5,2.5,10,7.6,11.7,14.3C59.5,26.4,59.7,28.5,60.1,30.6z"/>
	<path class="st1" d="M43,7.9c-1.9,1.7-3.8,3.4-5.9,5.3c3.6,0.9,6,2.8,7.4,5.8c-3,0.6-6,1.3-9.1,1.9c1.1,4.2,0.3,7.8-2.8,10.9
		c-3-2-4.3-4.5-4.7-9.1c-3.1,0.5-6.3,1-9.5,1.6c0.3-3.5,2-6.2,5.1-8.2c-2.4-1.8-4.7-3.6-7-5.3c2.4-2.8,7-3.2,12-0.7
		c-0.6-1.8-1.1-3.3-1.6-4.8c-0.5-1.5-1.2-3-1.8-4.6C25.7,0.5,26,0.3,26.5,0c1.2,3.2,2.3,6.3,3.5,9.5c2.1-2.1,4.5-3.4,7.4-3.4
		C39.5,6.2,41.5,6.7,43,7.9z"/>
</g>
</svg>
