<?xml version="1.0" encoding="utf-8"?>
<!-- Generator: Adobe Illustrator 21.1.0, SVG Export Plug-In . SVG Version: 6.00 Build 0)  -->
<svg version="1.1" id="Layer_1" xmlns="http://www.w3.org/2000/svg" xmlns:xlink="http://www.w3.org/1999/xlink" x="0px" y="0px"
	 viewBox="0 0 60 60" style="enable-background:new 0 0 60 60;" xml:space="preserve">
<style type="text/css">
	.st0{fill:#007700;}
</style>
<path class="st0" d="M54.6,25.8c0,0-1.9-19.7-15.4-15.8c0,0-1.1-0.2-1.8,0.4c0,0-3.2-2.8-7.9,0c0,0-1.8,0.9-2.3,0.9
	c0,0-5.1-7.5-11-8.6c0,0-5.4-2.9-9.2-1.2c0,0-1.5,0.6-2,0.6c0,0-1.6,0.6,0,2.4c0,0,3,4.9,4.7,5.1c0,0,1.8-0.1,2.3-1.7
	c0,0,0.4-2,2.3-0.8c0,0,5.5,4.2,5.5,6.9c0,0-5.8-0.9-7.7,0c0,0-6.2-0.9-7.8,3.6c0,0-1,3.8,1.1,7.5c0,0,1.8,11.3,6.9,18.5
	c0,0,7.9,15.3,12.9,13.6c0,0,6.6,4.9,12.9,1.8c0,0,6.1,0,11.4-5.8c0,0,5.2-0.4,7.2-10.5C56.7,42.6,58.2,31.4,54.6,25.8z M32,16.9
	c-3.9,1.4-2.7,5.6-2.3,6.7c0,0.1,0.1,0.2,0.1,0.3c0,0,0-0.1-0.1-0.3c-1.4-3.5-5.4-4.3-5.4-4.3c-5.9-0.6-8.9,2.2-8.9,2.2
	c0.5-1.1,2.2-2,2.2-2c-1.1-1.6-4.5-1.8-4.5-1.8c2.4-0.5,5.5-0.4,5.5-0.4c-1,0.9,0.1,1.8,0.1,1.8c5.1-1.8,9.5,1.2,9.5,1.2
	c-0.7-4,6-4.9,6-4.9c0.9-0.8-0.8-1.3-0.8-1.3c1.5-0.1,3.8-1.2,3.8-1.2c-1.4,1.3-0.4,2-0.4,2c4.7,0,6.5,1.8,6.5,1.8
	C37.7,14,32,16.9,32,16.9z"/>
</svg>
