<?xml version="1.0" encoding="utf-8"?>
<!-- Generator: Adobe Illustrator 21.1.0, SVG Export Plug-In . SVG Version: 6.00 Build 0)  -->
<svg version="1.1" id="Layer_1" xmlns="http://www.w3.org/2000/svg" xmlns:xlink="http://www.w3.org/1999/xlink" x="0px" y="0px"
	 viewBox="0 0 60 60" style="enable-background:new 0 0 60 60;" xml:space="preserve">
<style type="text/css">
	.st0{fill:#C1272D;}
	.st1{fill:#FFFFFF;}
</style>
<g>
	<path class="st0" d="M29.9,1.2c8,0.4,15.5,2,21.9,8.6c5.3,5.5,8.6,12.2,8.1,21.2c-0.2,3.5,0.2,7.2-0.4,10.6
		C56.7,58,40.1,65.4,28.5,55.5c-2.7-2.3-5.2-5.2-7.6-8.1c-3.4-4.1-7.2-6.3-12-6.4C2.3,41,0,37.7,0,29.4C0,14.9,5.6,6.7,18,3.3
		C21.9,2.2,25.9,1.9,29.9,1.2z M41,49.2c1.3-0.4,3.9-0.9,6.3-2.2c10.8-5.5,14.2-20,6.9-30.7c-2.5-3.7-6-6.9-9.6-9
		c-7.6-4.4-15.8-4-24-2.3C14.3,6.4,8.7,9.5,4.4,15.6C2.3,18.6,1.1,22,2.4,26c1.3,3.9,4,4.7,6.9,4.7c5,0,9.2,2.2,12.7,6.8
		c1.2,1.5,2.4,2.9,3.7,4.3C29.7,46.2,34.2,49,41,49.2z"/>
	<path class="st1" d="M41,49.2c-6.7-0.2-11.3-3-15.3-7.5c-1.2-1.4-2.5-2.8-3.7-4.3c-3.5-4.5-7.7-6.8-12.7-6.8c-3,0-5.6-0.8-6.9-4.7
		c-1.3-4-0.1-7.4,2-10.3c4.3-6.1,9.9-9.2,16.2-10.6c8.1-1.7,16.3-2.2,24,2.3c3.5,2.1,7,5.3,9.6,9c7.3,10.8,4,25.2-6.9,30.7
		C44.9,48.3,42.3,48.8,41,49.2z M29.5,6.7c-1.9,0.2-4.1,0.3-6.4,0.7c-6.5,1-12.5,3.6-16.9,10.1c-1.1,1.6-1.8,4.4-1.6,6.5
		c0.3,2.8,2.6,2.8,4.5,2.8c6.1-0.1,11,3,15.2,8.4c1,1.3,2,2.8,3.3,3.8c2.7,2.1,5.4,4.6,8.4,5.8c7.3,2.8,15.9-2.5,18.9-11
		c2.5-7.2-0.3-15.7-7.1-21.4C42.3,7.8,36.2,6.9,29.5,6.7z"/>
	<path class="st0" d="M29.5,6.7c6.7,0.2,12.8,1.1,18.2,5.7c6.8,5.7,9.6,14.1,7.1,21.4c-2.9,8.5-11.6,13.8-18.9,11
		c-3-1.2-5.7-3.7-8.4-5.8c-1.2-1-2.3-2.5-3.3-3.8c-4.2-5.4-9.1-8.5-15.2-8.4c-1.9,0-4.2,0-4.5-2.8c-0.2-2.1,0.5-4.9,1.6-6.5
		c4.4-6.5,10.4-9.1,16.9-10.1C25.4,7,27.7,6.9,29.5,6.7z M38.4,39.3c5.1-1.6,11.4-13,10.3-18.4c-2.8,5.6-6.4,3.5-9.9,2.1
		c-1.9-0.8-3.8-1.5-5.8-2c-1.5-0.4-3.1-0.5-4.7-0.8c3.1,2.4,6.4,3.9,9.5,5.7c3.4,1.9,4.1,4.6,2.4,8.8C39.7,36,39.2,37.3,38.4,39.3z"
		/>
	<path class="st1" d="M38.4,39.3c0.8-2,1.4-3.3,1.9-4.6c1.7-4.2,1-6.9-2.4-8.8c-3.2-1.8-6.4-3.3-9.5-5.7c1.6,0.2,3.1,0.3,4.7,0.8
		c2,0.5,3.9,1.2,5.8,2c3.5,1.4,7.1,3.5,9.9-2.1C49.8,26.3,43.5,37.6,38.4,39.3z"/>
</g>
</svg>
